<svg width="230" height="34" viewBox="0 0 230 34" fill="none" xmlns="http://www.w3.org/2000/svg">
<path d="M33.2752 33.8339C34.578 33.8339 35.0665 33.3563 35.0665 32.0826V19.1863C35.0665 13.667 31.4296 9.89893 25.7299 9.89893C21.9844 9.89893 19.0532 11.4911 17.5333 14.1446C16.0133 11.4911 13.0821 9.89893 9.3366 9.89893C3.63693 9.89893 0 13.667 0 19.1863V32.0826C0 33.3563 0.488552 33.8339 1.79133 33.8339H3.41981C4.72259 33.8339 5.21112 33.3563 5.21112 32.0826V19.0271C5.21112 16.1613 7.00244 13.9854 10.0423 13.9854C13.0821 13.9854 14.9277 16.1613 14.9277 19.0271V32.0826C14.9277 33.3563 15.4162 33.8339 16.719 33.8339H18.2932C19.596 33.8339 20.0845 33.3563 20.0845 32.0826V19.0271C20.0845 16.1613 21.9301 13.9854 24.9699 13.9854C28.0098 13.9854 29.8011 16.1613 29.8011 19.0271V32.0826C29.8011 33.3563 30.2896 33.8339 31.5924 33.8339H33.2752Z" fill="black"/>
<path d="M59.6251 9.89893H58.0509C56.7482 9.89893 56.2596 10.3766 56.2596 11.6503V23.6974C56.2596 27.147 54.034 29.5883 50.4514 29.5883C46.8688 29.5883 44.6432 27.147 44.6432 23.6974V11.6503C44.6432 10.3766 44.1546 9.89893 42.8518 9.89893H41.2777C39.9749 9.89893 39.4863 10.3766 39.4863 11.6503V23.6974C39.4863 30.0128 44.2632 33.8339 50.5057 33.8339C56.7482 33.8339 61.4707 29.9597 61.4707 23.6974V11.6503C61.4707 10.3766 60.9279 9.89893 59.6251 9.89893Z" fill="black"/>
<path d="M67.8359 2.74123V32.2487C67.8359 33.5224 68.3245 34 69.6273 34H71.2014C72.5042 34 72.9928 33.5224 72.9928 32.2487V2.74123C72.9928 1.46753 72.5042 0.989899 71.2014 0.989899H69.6273C68.3788 0.989899 67.8359 1.46753 67.8359 2.74123Z" fill="black"/>
<path d="M95.1738 12.1333V32.141C95.1738 33.4147 95.5538 33.8924 96.9109 33.8924H98.5393C99.8421 33.8924 100.385 33.4147 100.385 32.141V12.1333C100.385 10.8596 99.8964 10.382 98.5393 10.382H96.9109C95.6081 10.382 95.1738 10.8596 95.1738 12.1333Z" fill="black"/>
<path d="M95.1738 4.22688V2.7409C95.1738 1.46719 95.6624 0.989563 97.0194 0.989563H98.5393C99.8421 0.989563 100.385 1.46719 100.385 2.7409V4.22688C100.385 5.50058 99.8964 5.97821 98.5393 5.97821H97.0194C95.7167 5.97821 95.1738 5.50058 95.1738 4.22688Z" fill="black"/>
<path d="M90.1006 31.2911C90.1006 30.1235 89.6663 29.699 88.5264 29.5397C85.758 29.1152 84.1295 26.727 84.1295 23.8081V14.3615H87.7664C89.0692 14.3615 89.5577 13.8838 89.5577 12.6101V11.8671C89.5577 10.5934 89.0692 10.1158 87.7664 10.1158H84.1295V5.7109C84.1295 4.4372 83.6409 3.95956 82.3382 3.95956H80.764C79.4612 3.95956 78.9727 4.4372 78.9727 5.7109V23.8081C78.9727 29.4867 82.881 33.3078 88.4721 33.8916H88.7978C89.6663 33.8916 90.1006 33.3608 90.1006 32.0871V31.2911Z" fill="black"/>
<path d="M105.297 21.6382C105.297 28.5304 110.379 33.7129 117.593 33.7129C121.09 33.7129 123.713 32.5374 125.79 30.614L125.79 31.9497C125.79 33.232 126.281 33.7129 127.648 33.7129H129.178C130.489 33.7129 131.036 33.232 131.036 31.9497L131.036 1.76311C131.036 0.480842 130.544 0 129.178 0H127.538C126.227 0 125.68 0.480842 125.68 1.76311V12.5555C123.658 10.365 120.598 9.02927 117.155 9.02927C110.434 9.13613 105.297 14.372 105.297 21.6382ZM110.652 21.4779C110.652 16.9366 113.822 13.6775 118.194 13.6775C122.62 13.6775 125.79 16.9366 125.79 21.4779C125.79 26.0193 122.62 29.2784 118.194 29.2784C113.822 29.2784 110.652 26.0193 110.652 21.4779Z" fill="black"/>
<path d="M150.273 12.1333V32.141C150.273 33.4147 150.653 33.8924 152.01 33.8924H153.639C154.942 33.8924 155.485 33.4147 155.485 32.141V12.1333C155.485 10.8596 154.996 10.382 153.639 10.382H152.01C150.708 10.382 150.273 10.8596 150.273 12.1333Z" fill="black"/>
<path d="M150.273 4.22688V2.7409C150.273 1.46719 150.762 0.989563 152.119 0.989563H153.639C154.942 0.989563 155.485 1.46719 155.485 2.7409V4.22688C155.485 5.50058 154.996 5.97821 153.639 5.97821H152.119C150.816 5.97821 150.273 5.50058 150.273 4.22688Z" fill="black"/>
<path d="M214.663 22.8791H193.83C194.157 24.9052 195.084 26.5049 196.557 27.7312C198.029 28.9576 199.829 29.5975 201.901 29.5975C203.647 29.5975 205.174 29.1176 206.537 28.2111C207.573 27.518 208.337 26.6115 208.882 25.6517C209.264 24.9052 209.7 24.6386 210.9 24.6386H212.209C213.736 24.6386 214.282 25.4384 213.845 26.3982C213.027 28.2644 211.718 29.8641 209.864 31.1971C207.519 32.9033 204.847 33.7565 201.847 33.7565C198.084 33.7565 194.975 32.5834 192.466 30.2373C190.012 27.8912 188.758 24.9585 188.758 21.3327C188.758 17.7603 190.012 14.7743 192.466 12.4282C194.921 10.0821 198.029 8.90903 201.847 8.90903C205.665 8.90903 208.719 10.0821 211.173 12.4282C215.809 16.9071 214.718 22.6125 214.663 22.8791ZM201.901 13.0147C199.938 13.0147 198.247 13.5479 196.829 14.6677C195.411 15.7874 194.484 17.2271 193.993 19.04H209.919C209.482 17.2804 208.555 15.7874 207.083 14.721C205.61 13.6013 203.865 13.0147 201.901 13.0147Z" fill="black"/>
<path d="M137.086 33.6564C135.981 33.6564 135.086 32.7609 135.086 31.6564V19.1603C135.086 14.0813 138.434 10.6365 144.226 10.004C145.324 9.88407 146.223 10.8077 146.223 11.9123C146.223 13.0168 145.311 13.8824 144.24 14.1528C141.784 14.7732 140.448 16.6465 140.448 19.563V31.6563C140.448 32.7609 139.553 33.6564 138.448 33.6564H137.086Z" fill="black"/>
<path d="M220.863 33.6564C219.759 33.6564 218.863 32.7609 218.863 31.6564V19.1603C218.863 14.0813 222.212 10.6365 228.003 10.004C229.101 9.88407 230.001 10.8077 230.001 11.9123C230.001 13.0168 229.089 13.8824 228.018 14.1528C225.561 14.7732 224.226 16.6465 224.226 19.563V31.6563C224.226 32.7609 223.33 33.6564 222.226 33.6564H220.863Z" fill="black"/>
<path d="M181.757 9.89893C183.171 9.89893 184.138 11.3262 183.615 12.6397L175.718 32.4455C175.414 33.2059 174.679 33.7048 173.86 33.7048H170.381C169.562 33.7048 168.826 33.2059 168.523 32.4455L160.892 13.3065C160.241 11.6735 161.444 9.89893 163.202 9.89893C164.225 9.89893 165.144 10.5258 165.517 11.4786L172.327 28.8629L179.258 11.1695C179.558 10.4031 180.297 9.89893 181.12 9.89893H181.757Z" fill="black"/>
</svg>
